<svg width="124" height="123" viewBox="0 0 124 123" fill="none" xmlns="http://www.w3.org/2000/svg">
<g clip-path="url(#clip0_43640_369)">
<rect width="122.706" height="122.706" transform="translate(0.646973)" fill="#5ADCA2"/>
<path d="M140.915 192.342C171.792 192.342 196.823 167.311 196.823 136.434C196.823 105.557 171.792 80.5259 140.915 80.5259C110.038 80.5259 85.0073 105.557 85.0073 136.434C85.0073 167.311 110.038 192.342 140.915 192.342Z" fill="#FFEB3B"/>
<path d="M32.8191 56.6749C42.116 56.6749 49.6528 49.138 49.6528 39.8411C49.6528 30.5441 42.116 23.0074 32.8191 23.0074C23.5221 23.0074 15.9854 30.5441 15.9854 39.8411C15.9854 49.138 23.5221 56.6749 32.8191 56.6749Z" fill="#FFEB3B"/>
<path d="M115.684 76.6913V115.037H46.6618V76.6913H115.684ZM123.353 69.0222H38.9927V122.706H123.353V69.0222Z" fill="black"/>
<path d="M81.1728 84.3604C87.5267 84.3604 92.6765 89.5103 92.6765 95.8641C92.6765 102.218 87.5267 107.368 81.1728 107.368C74.819 107.368 69.6691 102.218 69.6691 95.8641C69.6691 89.5103 74.819 84.3604 81.1728 84.3604ZM81.1728 76.6913C70.6009 76.6913 62 85.2922 62 95.8641C62 106.436 70.6009 115.037 81.1728 115.037C91.7447 115.037 100.346 106.436 100.346 95.8641C100.346 85.2922 91.7447 76.6913 81.1728 76.6913Z" fill="black"/>
<path d="M85.0074 15.3383V11.5037C85.0074 3.06765 78.1435 0 73.5037 0H35.1581C26.722 0 23.6544 6.86387 23.6544 11.5037V15.3383H0.646973V92.0296H31.3235V84.3604H8.3161V46.0148H23.6544V53.6839H31.3235V46.0148H77.3383V53.6839H85.0074V46.0148H100.346V61.353H108.015V15.3383H85.0074ZM31.3235 11.542C31.3618 9.77814 32.0521 7.66913 35.1581 7.66913H73.4654C75.2293 7.70748 77.3383 8.3977 77.3383 11.5037V15.3383H31.3235V11.542ZM100.346 38.3456H85.0074V30.6765H77.3383V38.3456H31.3235V30.6765H23.6544V38.3456H8.3161V23.0074H100.346V38.3456Z" fill="black"/>
</g>
<defs>
<clipPath id="clip0_43640_369">
<rect width="122.706" height="122.706" fill="white" transform="translate(0.646973)"/>
</clipPath>
</defs>
</svg>
